<svg width="500" height="500" viewBox="0 0 500 500" fill="none" xmlns="http://www.w3.org/2000/svg">
<path d="M250 500C388.071 500 500 388.071 500 250C500 111.929 388.071 0 250 0C111.929 0 0 111.929 0 250C0 388.071 111.929 500 250 500Z" fill="#B7BDC9"/>
<g filter="url(#filter0_dd_4831_11634)">
<path d="M332.5 172.5C332.5 168.082 328.918 164.5 324.5 164.5H159.5C155.082 164.5 151.5 168.082 151.5 172.5V296.189C151.5 300.883 157.384 302.99 160.364 299.362L162.4 296.884C164.679 294.108 168.081 292.5 171.673 292.5H250.979C254.623 292.5 258.411 294.437 261.333 296.614C263.22 298.02 265.199 299.363 266.135 300.167L278 309.524C282.629 313.499 279.723 319.5 273.621 319.5H170L132.547 362.805C128.911 367.009 122.006 364.436 122.009 358.877L122.12 159C122.12 145.8 132.8 135 146 135H338C351.2 135 362 145.8 362 159V248.764C362 252.736 357.981 254.613 355.133 251.845C349.992 246.848 343.339 240.154 338.145 236.076C335.033 233.634 332.5 229.912 332.5 225.956V172.5Z" fill="white"/>
<path d="M254 235H182C175.373 235 170 240.373 170 247C170 253.627 175.373 259 182 259H254C260.628 259 266 253.627 266 247C266 240.373 260.628 235 254 235Z" fill="white"/>
<path d="M302 193H182C175.373 193 170 198.373 170 205C170 211.627 175.373 217 182 217H302C308.627 217 314 211.627 314 205C314 198.373 308.628 193 302 193Z" fill="white"/>
<path d="M324.81 259.72C326.839 253.134 336.161 253.134 338.19 259.72L344.555 280.385C345.471 283.359 348.24 285.371 351.352 285.323L372.972 284.991C379.863 284.885 382.743 293.751 377.107 297.716L359.42 310.155C356.875 311.945 355.817 315.201 356.824 318.145L363.821 338.604C366.051 345.125 358.509 350.605 352.997 346.469L335.701 333.492C333.212 331.624 329.788 331.624 327.299 333.492L310.004 346.469C304.491 350.605 296.949 345.125 299.179 338.604L306.176 318.146C307.183 315.201 306.125 311.945 303.58 310.155L285.894 297.716C280.257 293.751 283.138 284.885 290.028 284.991L311.648 285.323C314.76 285.371 317.529 283.359 318.445 280.385L324.81 259.72Z" fill="white"/>
</g>
<defs>
<filter id="filter0_dd_4831_11634" x="95.009" y="104" width="318.085" height="298.892" filterUnits="userSpaceOnUse" color-interpolation-filters="sRGB">
<feFlood flood-opacity="0" result="BackgroundImageFix"/>
<feColorMatrix in="SourceAlpha" type="matrix" values="0 0 0 0 0 0 0 0 0 0 0 0 0 0 0 0 0 0 127 0" result="hardAlpha"/>
<feOffset dx="-5" dy="-9"/>
<feGaussianBlur stdDeviation="11"/>
<feComposite in2="hardAlpha" operator="out"/>
<feColorMatrix type="matrix" values="0 0 0 0 0.9875 0 0 0 0 0.9875 0 0 0 0 0.9875 0 0 0 0.7 0"/>
<feBlend mode="normal" in2="BackgroundImageFix" result="effect1_dropShadow_4831_11634"/>
<feColorMatrix in="SourceAlpha" type="matrix" values="0 0 0 0 0 0 0 0 0 0 0 0 0 0 0 0 0 0 127 0" result="hardAlpha"/>
<feOffset dx="9" dy="14"/>
<feGaussianBlur stdDeviation="12"/>
<feComposite in2="hardAlpha" operator="out"/>
<feColorMatrix type="matrix" values="0 0 0 0 0 0 0 0 0 0 0 0 0 0 0 0 0 0 0.25 0"/>
<feBlend mode="normal" in2="effect1_dropShadow_4831_11634" result="effect2_dropShadow_4831_11634"/>
<feBlend mode="normal" in="SourceGraphic" in2="effect2_dropShadow_4831_11634" result="shape"/>
</filter>
</defs>
</svg>
