<svg width="56" height="56" viewBox="0 0 56 56" fill="none" xmlns="http://www.w3.org/2000/svg">
<path d="M24.0834 35.625H13.25C11.7542 35.625 10.5417 36.8376 10.5417 38.3333V43.75C10.5417 45.2458 11.7542 46.4583 13.25 46.4583H24.0834C25.5791 46.4583 26.7917 45.2458 26.7917 43.75V38.3333C26.7917 36.8376 25.5791 35.625 24.0834 35.625Z" fill="#B7BDC9"/>
<path d="M24.0834 8.54175H13.25C11.7542 8.54175 10.5417 9.75431 10.5417 11.2501V27.5001C10.5417 28.9959 11.7542 30.2084 13.25 30.2084H24.0834C25.5791 30.2084 26.7917 28.9959 26.7917 27.5001V11.2501C26.7917 9.75431 25.5791 8.54175 24.0834 8.54175Z" fill="#B7BDC9"/>
<path d="M45.75 24.7917H34.9166C33.4209 24.7917 32.2083 26.0043 32.2083 27.5001V43.7501C32.2083 45.2459 33.4209 46.4584 34.9166 46.4584H45.75C47.2458 46.4584 48.4583 45.2459 48.4583 43.7501V27.5001C48.4583 26.0043 47.2458 24.7917 45.75 24.7917Z" fill="#B7BDC9"/>
<path d="M45.75 8.54175H34.9166C33.4209 8.54175 32.2083 9.75431 32.2083 11.2501V16.6667C32.2083 18.1625 33.4209 19.3751 34.9166 19.3751H45.75C47.2458 19.3751 48.4583 18.1625 48.4583 16.6667V11.2501C48.4583 9.75431 47.2458 8.54175 45.75 8.54175Z" fill="#B7BDC9"/>
</svg>
